<svg xmlns="http://www.w3.org/2000/svg" version="1.1" xmlns:xlink="http://www.w3.org/1999/xlink" xmlns:svgjs="http://svgjs.dev/svgjs" width="850" height="850"><svg xmlns="http://www.w3.org/2000/svg" width="850" height="850" fill="none" viewBox="0 0 25.5 25.5"><path d="M19.725 19.758A10 10 0 0 1 9.76 23.06a10 10 0 0 1-7.425-7.424A10 10 0 0 1 5.637 5.67" style="fill:none;fill-opacity:1;stroke:#000;stroke-width:1.8;stroke-linecap:round;stroke-dasharray:none;stroke-opacity:1"></path><path d="M11.465 1.24a.9.9 0 0 0-.9.9.9.9 0 0 0 .9.901c6.14 0 11.1 4.959 11.1 11.1a.9.9 0 0 0 .9.9.9.9 0 0 0 .9-.9c0-7.114-5.786-12.9-12.9-12.9" style="fill:#000;stroke-linecap:round;fill-opacity:1;stroke:none;vector-effect:non-scaling-stroke;-inkscape-stroke:hairline;stroke-width:.03;stroke-dasharray:none"></path><path d="M11.824 5.41a.9.9 0 0 0-.9.9.9.9 0 0 0 .9.9c3.656 0 6.6 2.945 6.6 6.6a.9.9 0 0 0 .9.9.9.9 0 0 0 .9-.9c0-4.628-3.771-8.4-8.4-8.4" style="fill:#000;stroke-linecap:round;fill-opacity:1;stroke:none;vector-effect:non-scaling-stroke;-inkscape-stroke:hairline;stroke-width:.03;stroke-dasharray:none"></path><circle cx="12.065" cy="13.33" r="2.25" style="fill:none;fill-opacity:1;stroke:#000;stroke-width:1.5;stroke-linecap:round;stroke-dasharray:none;stroke-opacity:1"></circle></svg><style>@media (prefers-color-scheme: light) { :root { filter: none; } }
@media (prefers-color-scheme: dark) { :root { filter: invert(100%); } }
</style></svg>