<svg xmlns="http://www.w3.org/2000/svg" xml:space="preserve" width="250" height="75" viewBox="104.8 49.784 250 75"><path fill="none" stroke="#000" stroke-width="3.463" d="M148.713 88.053a7.335 7.335 0 1 1-14.67 0 7.335 7.335 0 0 1 14.67 0z"/><path d="M128.411 101.017a2.445 2.445 0 1 1 3.458-3.458 2.445 2.445 0 0 1-3.458 3.458m25.933 0a2.445 2.445 0 1 1-3.458-3.457 2.445 2.445 0 0 1 3.458 3.457m-22.475-22.473a2.445 2.445 0 1 1-3.458-3.457 2.445 2.445 0 0 1 3.458 3.457"/><path fill="none" stroke="#000" stroke-linecap="round" stroke-width="3.958" d="M165.873 88.053a24.495 24.495 0 0 1-24.495 24.495 24.495 24.495 0 0 1-24.495-24.495 24.495 24.495 0 0 1 24.495-24.495"/><path fill="none" stroke="#000" stroke-linecap="round" stroke-linejoin="round" stroke-width="2.876" d="M147.925 60.536h24.192a3.024 3.024 0 0 1 3.024 3.024v15.12a3.024 3.024 0 0 1-3.024 3.024h-4.536m-12.096 0a7.56 7.56 0 0 0-7.56-7.56m13.608 7.56c0-7.515-6.093-13.608-13.608-13.608"/><text x="183.576" y="86.112" font-family="Tahoma, Verdana, sans-serif" font-size="24" style="white-space:pre">K2 RFID</text><text x="340.595" y="105.264" fill="#7f7f7f" font-family="Tahoma, Verdana, sans-serif" font-size="18" style="white-space:pre"><tspan text-anchor="end">Web Logging</tspan></text></svg>